#N canvas 437 190 772 495 10;
#X obj 16 75 netreceive -u 5113;
#X msg 16 49 listen 5113;
#X obj 72 101 print brut;
#X obj 60 250 print setinst;
#X obj 16 274 print playnote;
#X obj 105 227 print playperc;
#X obj 131 184 s note;
#X obj 191 184 s inst;
#X obj 251 184 s perc;
#X obj 443 53 r note;
#X obj 443 113 t b f;
#X text 234 84 note channel note vel dur;
#X text 233 100 inst channel inst;
#X text 234 116 perc channel inst vel dur;
#X obj 443 87 unpack f f f f;
#X obj 443 188 noteout;
#X obj 443 164 makenote;
#X obj 443 139 f;
#X obj 560 169 pgmout;
#X obj 560 53 r inst;
#X obj 560 87 unpack f f;
#X obj 560 114 t b f;
#X obj 560 142 f;
#X obj 647 113 t b f;
#X obj 647 87 unpack f f f f;
#X obj 647 188 noteout;
#X obj 647 164 makenote;
#X obj 647 139 f;
#X obj 647 53 r perc;
#X text 234 50 réception sur port UDP 5113;
#X text 234 66 messages :;
#X text 234 133 panic;
#X obj 337 189 t b b;
#X obj 16 131 route note inst perc panic;
#X text 486 452 ALL NOTES OFF;
#X text 333 452 ALL SOUNDS OFF;
#X msg 159 104 panic;
#X obj 337 319 f;
#X obj 369 318 + 1;
#X floatatom 337 341 5 0 0 0 - - -, f 5;
#X msg 344 258 stop;
#X obj 337 236 bng 15 250 50 0 empty empty empty 17 7 0 10 -262144
-1 -1;
#X obj 390 383 t b b;
#X msg 403 282 0;
#X obj 337 384 t b f;
#X msg 337 407 0;
#X obj 337 431 ctlout 120;
#X obj 337 292 metro 10;
#X obj 337 361 moses 17;
#X obj 488 319 f;
#X obj 520 318 + 1;
#X floatatom 488 341 5 0 0 0 - - -, f 5;
#X msg 495 258 stop;
#X obj 488 236 bng 15 250 50 0 empty empty empty 17 7 0 10 -262144
-1 -1;
#X obj 541 383 t b b;
#X msg 554 282 0;
#X obj 488 384 t b f;
#X msg 488 407 0;
#X obj 488 292 metro 10;
#X obj 488 361 moses 17;
#X obj 488 431 ctlout 123;
#X obj 16 21 loadbang;
#X connect 0 0 2 0;
#X connect 0 0 33 0;
#X connect 1 0 0 0;
#X connect 9 0 14 0;
#X connect 10 0 17 0;
#X connect 10 1 15 2;
#X connect 14 0 10 0;
#X connect 14 1 17 1;
#X connect 14 2 16 1;
#X connect 14 3 16 2;
#X connect 16 0 15 0;
#X connect 16 1 15 1;
#X connect 17 0 16 0;
#X connect 19 0 20 0;
#X connect 20 0 21 0;
#X connect 20 1 22 1;
#X connect 21 0 22 0;
#X connect 21 1 18 1;
#X connect 22 0 18 0;
#X connect 23 0 27 0;
#X connect 23 1 25 2;
#X connect 24 0 23 0;
#X connect 24 1 27 1;
#X connect 24 2 26 1;
#X connect 24 3 26 2;
#X connect 26 0 25 0;
#X connect 26 1 25 1;
#X connect 27 0 26 0;
#X connect 28 0 24 0;
#X connect 32 0 41 0;
#X connect 32 1 53 0;
#X connect 33 0 4 0;
#X connect 33 0 6 0;
#X connect 33 1 3 0;
#X connect 33 1 7 0;
#X connect 33 2 5 0;
#X connect 33 2 8 0;
#X connect 33 3 32 0;
#X connect 36 0 33 0;
#X connect 37 0 38 0;
#X connect 37 0 39 0;
#X connect 38 0 37 1;
#X connect 39 0 48 0;
#X connect 40 0 47 0;
#X connect 41 0 47 0;
#X connect 42 0 43 0;
#X connect 42 1 40 0;
#X connect 43 0 37 1;
#X connect 44 0 45 0;
#X connect 44 1 46 2;
#X connect 45 0 46 0;
#X connect 47 0 37 0;
#X connect 48 0 44 0;
#X connect 48 1 42 0;
#X connect 49 0 50 0;
#X connect 49 0 51 0;
#X connect 50 0 49 1;
#X connect 51 0 59 0;
#X connect 52 0 58 0;
#X connect 53 0 58 0;
#X connect 54 0 55 0;
#X connect 54 1 52 0;
#X connect 55 0 49 1;
#X connect 56 0 57 0;
#X connect 56 1 60 2;
#X connect 57 0 60 0;
#X connect 58 0 49 0;
#X connect 59 0 56 0;
#X connect 59 1 54 0;
#X connect 61 0 1 0;
